<?xml version="1.0" encoding="UTF-8"?>
<svg id="Layer_2" data-name="Layer 2" xmlns="http://www.w3.org/2000/svg" viewBox="0 0 222.98 75.64">
  <defs>
    <style>
      .cls-1 {
        fill: none;
        stroke: #000;
        stroke-linecap: round;
        stroke-linejoin: round;
        stroke-width: 2px;
      }

      .cls-2 {
        fill: #fff;
      }
    </style>
  </defs>
  <g id="Layer_1-2" data-name="Layer 1">
    <g>
      <path d="M5.95,0c6.2,1.71,11.64,5.06,12.71,11.87-4.68,1.64-11.43.15-14.98-3.31C1.63,6.58-2.6.96,2.21,0h3.74Z"/>
      <path d="M97.14,48.27c-8.47,3.15-19.01,2.42-19.47-8.52-.39-9.3,5.42-13.43,14.44-12.1,4.16.61,4.88,1.61,4.28,5.76-2.36-.58-3.65-2.1-6.38-2.25-10.89-.61-9.41,17.69,1.9,14.89v-4.46s-4.49,0-4.49,0v-3.72s9.72,0,9.72,0v10.4Z"/>
      <path d="M201.79,33.42l.33-5.98c1.18-1.14,4.23-1.21,4.8.52.5,1.52.32,11.11.1,13.25-.35,3.47-1.91,7.52-5.75,8.39-15.99,3.64-14.71-20.82.52-16.18ZM197.09,36.52c-2.96.86-2.83,8.77-.53,9.91,6.93,3.44,7.71-12.01.53-9.91Z"/>
      <polygon points="152.46 28.22 152.46 31.94 142.74 31.93 142.74 36.39 151.72 36.39 151.72 40.11 142.74 40.1 142.75 49.76 137.51 49.76 137.51 28.22 152.46 28.22"/>
      <path d="M114.34,49.76c-1.99.96-4.47-1.44-5.48-1.35-2.1.18-7.01,3.74-9.08-.89-3.07-6.87,4.9-8.66,10.07-8.9-.85-4.28-6.78-2.59-9.71-1.48-.63-3.94.37-4.17,4.11-4.45,2.19-.16,10.09.53,10.09,3.34v13.74ZM109.85,41.59c-3.08-.35-7.06.8-6.72,4.44,4.29,1.63,7.14.44,6.72-4.44Z"/>
      <path d="M178.44,32.84c12.26-1.98,12.82,14.98,4.89,16.76-14.57,3.29-14.73-15.17-4.89-16.76ZM182.93,45.86c1.5-1.8,1.66-8.87-1.7-9.48-6.58-1.2-5.75,9.31-2.08,10.31.96.26,3.18-.11,3.78-.83Z"/>
      <path d="M160.5,32.84c13.83-2.15,13.36,21.4-2.1,16.59-6.28-1.96-7.15-15.14,2.1-16.59ZM164.32,36.49c-1.06-.74-4.78-.12-5.51,1.38-.9,1.83-.76,7.56,1.3,8.42,6.78,2.84,6.38-8.29,4.21-9.8Z"/>
      <path d="M221.97,37.13c-1.19-.59-8.94-2-8.95.37,0,2.62,10.96.77,9.71,8.13-.75,4.41-7.38,4.46-10.85,4.12s-3.69-.83-3.35-4.45c1.74.54,9.15,3,9.71.36.49-2.32-5.42-2.46-6.75-2.94-2.98-1.07-4.02-5.18-2-7.61,2.38-2.85,13.91-4.01,12.48,2.02Z"/>
      <path d="M122.56,28.22v5.21s4.48,0,4.48,0v2.96c-6.29-2.49-5.6,9.6-2.45,10.29.63.14,3.1-1.06,3.18.48,0,.14-.91,2.6-1.18,2.65-11.58,2.15-7.34-7.25-8.47-13-.17-.89-2.17,0-2.31-.78-.73-4.02,2.11-1.98,2.31-3.01l-.05-4.79h4.49Z"/>
      <ellipse cx="47.82" cy="36.79" rx="4.87" ry="4.84"/>
      <ellipse cx="37.58" cy="41.13" rx="4.84" ry="4.81"/>
      <ellipse cx="32.52" cy="28.95" rx="4.8" ry="4.77"/>
      <path d="M39.02,57.01c-4.19-4.16,2.36-11.9,6.92-7.24s-2.87,11.25-6.92,7.24Z"/>
      <ellipse cx="22.02" cy="33.35" rx="4.74" ry="4.71"/>
      <ellipse cx="32.05" cy="57.69" rx="4.74" ry="4.71"/>
      <ellipse cx="26.9" cy="45.54" rx="4.72" ry="4.69"/>
      <ellipse cx="16.5" cy="49.72" rx="4.56" ry="4.53"/>
      <path d="M41.64,21.67c7.38-1.47,9,9.72.73,7.88-3.95-.88-5.35-6.96-.73-7.88Z"/>
      <path d="M53.43,43.37c5.2.25,4.19,10.19-1.47,9.38-5.17-.74-3.39-9.61,1.47-9.38Z"/>
      <path d="M39.4,64.05c5.16,5.06-9.61,11.46-8.04,2.44.55-3.13,5.94-4.5,8.04-2.44Z"/>
      <path d="M32.67,16.52c5.16,5.06-9.61,11.46-8.04,2.44.55-3.13,5.94-4.5,8.04-2.44Z"/>
      <path d="M17.71,20.17c6.3-1.2,6.81,7.49.45,7.83-5.99.33-5.63-6.85-.45-7.83Z"/>
      <path d="M46.11,58.8c6.89-1.42,6.78,7.67-.17,7.7-5.43.02-4.77-6.68.17-7.7Z"/>
      <path d="M18.4,57.3c6.25-2.08,10.23,8.35,2.18,7.28-4.46-.59-5.37-6.22-2.18-7.28Z"/>
      <path d="M11.67,34.32c4.7-.43,4.45,8.83-.11,8.83-5.05,0-4.43-8.41.11-8.83Z"/>
      <ellipse cx="39.41" cy="16.36" rx="3.99" ry="3.96"/>
      <ellipse cx="56.08" cy="57.61" rx="3.97" ry="3.94"/>
      <path d="M88.83,57.28c.31.46.21,1.82.08,2.46-.77,3.82-4.27,2.05-5.11,2.76-.17.15-.91,5.01-2.75,2.14-.68-1.06-.71-7.17.35-7.87,1.11-.73,6.85-.34,7.43.51ZM83.69,60.89c1.23,1.22,4.74-1.9,1.86-2.96-2.58-.95-2.18,2.64-1.86,2.96Z"/>
      <path d="M55.47,29.15c3.36-3.45,8.67,4.5,5.08,6.91s-8.01-3.91-5.08-6.91Z"/>
      <ellipse cx="25.3" cy="70.22" rx="3.63" ry="3.61"/>
      <ellipse cx="8.62" cy="29.13" rx="3.59" ry="3.57"/>
      <path d="M4.98,50.6c4.27-1.21,6.75,6.07,2.68,7.22-4.09,1.16-6.64-6.09-2.68-7.22Z"/>
      <path d="M166.67,59.42l4.39-.65.83,6.6h-2.24c.03-2.23.71-5.65-2.62-5.21l-.38,5.21h-2.24s0-9.65,0-9.65c2.33-.22,2.35,1.98,2.25,3.71Z"/>
      <path d="M152.46,65.36h-2.24s-.38-5.21-.38-5.21c-4.82-.64-.4,6.57-4.85,5.21v-6.69s6.78.31,6.78.31c1.29.86.52,4.79.69,6.37Z"/>
      <path d="M195.81,55.69l.73,3.4c.54.4,3.6-1.59,4.88,1.07.98,2.03,1.13,6.43-1.87,5.2-.05-1.49.72-5.21-1.87-5.21-3.55,0-.17,5.87-3.36,5.2.24-2.72-.35-5.9,0-8.55.17-1.35-.26-1.2,1.49-1.11Z"/>
      <path d="M121.07,62.38h-5.24c.56,2.44,4.77,1.1,5.23,1.49,2.13,1.82-4.09,1.61-4.84,1.46-4.41-.85-3.7-7.95,2.97-6.67,2.21.42,1.96,1.72,1.88,3.72ZM118.82,59.42c-3.74-.28-3.74,2.5,0,2.22v-2.22Z"/>
      <path d="M103.69,59.59c4.17,4.07-4.73,8.66-6.92,4.28-2.44-4.86,4.32-6.83,6.92-4.28ZM98.71,63.78c1.8,2.41,5.83-2.49,2.18-4.03-2.19-.92-3.08,2.81-2.18,4.03Z"/>
      <path d="M143.38,64.51c-1.05,1.55-10.23,2.17-7-4.36,2.11-4.26,9.82.18,7,4.36ZM141.24,60.16h-2.98c-.67,5.99,3.67,5.9,2.98,0Z"/>
      <path d="M205.54,62.39c-.61,2.77,3.65,1.04,5.23,1.49-1.43,2.67-7.74,2.01-8.07-1.28-.55-5.44,7.54-4.55,8.06-2.06.03,2.94-4.71,1.42-5.23,1.85ZM205.91,59.42c-1.79.46-.76,2.79,1.48,2.21,1.79-.46.76-2.79-1.48-2.21Z"/>
      <path d="M130.03,65.35c-3.42.45-1.78-4.64-2.24-5.2h-2.61s-.38,5.21-.38,5.21h-2.24s0-6.68,0-6.68l6.77.31c1.3.89.51,4.78.7,6.37Z"/>
      <path d="M180.86,62.38h-5.23c-.62,2.77,3.64,1.05,5.23,1.49,2.27,1.71-3.92,1.64-4.84,1.46-7.77-1.5,2.66-12.99,4.84-2.95ZM175.64,61.64c.46.46,2.96-.33,2.97-1.11.02-2.18-4.36-.27-2.97,1.11Z"/>
      <path d="M55.27,25.98c-3.68.55-6.7-3.07-5.96-6.66,4.21-.8,7.31,2.7,5.96,6.66Z"/>
      <path d="M59.78,40.11c3.44-2.28,5.38,7.42,2.58,8.16-4.28,1.13-3.7-7.42-2.58-8.16Z"/>
      <path d="M221.23,57.18l-2.99,1.13,2.24,1.85-2.29.4.05,4.8h-2.24c.59-2.49-1.28-5.69.06-7.7,1.15-1.71,4.21-3.07,5.17-.48Z"/>
      <path d="M4.44,46.78c-3.29,2.12-5.14-7.37-1.85-8.16,2.83-.68,3.13,7.34,1.85,8.16Z"/>
      <path d="M108.37,62.38c2.13,1.68,1.17-5.55,4.47-3.71-1.59,8.98-6.06,9.15-7.47,0,2.47-.58,2.68,3.46,3,3.71Z"/>
      <path d="M14.91,67.58c-3.28,1.65-8.14-5.81-4.84-6.68,2.48-.65,5.92,4.23,4.84,6.68Z"/>
      <path d="M192.07,58.67c.55,3.18-3.01-.8-3.73,2.22,8.02,1.32,3.72,5.47-2.24,4.46-.7-3.24,3.38.83,4.48-1.86.24-.58-12.2-4.13,1.49-4.82Z"/>
      <path d="M160.68,56.44c-1.31,3.06,2.98,1.62,2.25,3.34-.4.95-3.06-1.23-2.3,3.69.16,1.01,3.03-.58,2.29,1.88-2.59-.09-3.22.92-4.1-1.46-.93-2.53-1.89-7.18,1.85-7.46Z"/>
      <path d="M212.26,65.35c.06-2.34-.1-4.71,0-7.06.05-1.14-.7-2.94,1.11-2.59,1.68,1.82,2.41,9.63-1.11,9.64Z"/>
      <path d="M95.64,58.67c.63,2.5-2.27.83-2.9,2.69-.77,2.32,1.44,4.71-2.33,4v-6.68c1.89.27,3.36.74,5.22,0Z"/>
      <path d="M30.61,13.36c-3.03,1.24-5.61,1.9-8.97,1.49,1.26-2.14,7.63-4.4,8.97-1.49Z"/>
      <path d="M53.04,66.1c-1.58,2.74-4.64,4.12-7.47,5.19-1.17-1.24,5.5-6.33,7.47-5.19Z"/>
      <path d="M43.32,72.77c-3.01.88-5.72,1.96-8.97,1.49,1.28-1.83,7.8-4.27,8.97-1.49Z"/>
      <path d="M19.4,15.6c-.22,1.6-6.02,5.11-6.72,4.45-1.37-1.3,5.14-5.15,6.72-4.45Z"/>
      <path class="cls-2" d="M118.82,59.42v2.22c-3.74.28-3.74-2.5,0-2.22Z"/>
      <path class="cls-2" d="M205.91,59.42c2.24-.58,3.27,1.75,1.48,2.21-2.24.58-3.27-1.75-1.48-2.21Z"/>
      <path class="cls-2" d="M175.64,61.64c-1.39-1.38,2.99-3.29,2.97-1.11,0,.78-2.51,1.57-2.97,1.11Z"/>
      <path class="cls-1" d="M96.4,33.79c-1.19-3.08-5.15-4.74-8.97-3.7-.91.25-1.75.72-2.62,1.1"/>
      <path class="cls-1" d="M86.68,48.46c2.49-.19,4.98-.37,7.48-.56"/>
      <path class="cls-1" d="M93.41,40.66c-1.12-.06-2.24-.12-3.36-.19"/>
      <path class="cls-1" d="M204.04,36.39c-3.02-.66-6.08-2.13-8.97.37"/>
      <path class="cls-1" d="M194.69,47.16c3.78,2.97,5.99,2.72,9.72-1.11"/>
      <path class="cls-1" d="M221.98,37.5c-.85-3.03-3.71-2.29-5.62-2.41-1.44-.09-2.98,1.54-4.47,2.41"/>
      <path class="cls-1" d="M214.5,41.77c.87.19,1.74.37,2.62.56"/>
      <path class="cls-1" d="M220.86,47.16c-4.11,2.97-8.75,2.65-10.84-.74"/>
      <path class="cls-1" d="M112.09,40.85c-2.74.62-5.5,1.16-8.22,1.88-2.41.64-2.49,3.13-1.69,4.31.79,1.17,3.03,1.77,4.68,1.87,1.95.12,3.7-2.59,5.97-.64"/>
      <path class="cls-1" d="M151.34,30.82c-2.99.12-5.98.25-8.97.37"/>
      <path class="cls-1" d="M130.03,65.72c-.12-.74-.33-1.48-.36-2.23-.12-3.03-2.46-4.6-4.77-2.83-.8.61-.36,2.83-.48,4.32"/>
      <path class="cls-1" d="M111.35,36.02c-2.93-1.56-5.94-1.24-8.97-.37"/>
      <path class="cls-1" d="M175.63,62.75c1.62-.18,3.25-.36,4.87-.54.1-.29.2-.57.3-.86-1.22-.52-2.6-1.64-3.63-1.39-.85.21-1.68,2.01-1.77,3.17-.05.68,1.23,1.83,2.13,2.13,1.12.37,2.46.09,3.71.09"/>
      <path class="cls-1" d="M106.86,59.78c.12.25.24.5.38.74.81,1.36,1.62,2.72,2.43,4.09.81-1.24,1.59-2.5,2.45-3.7.24-.34.73-.51,1.1-.76"/>
      <path class="cls-1" d="M192.08,60.15c-1.41.14-2.82.28-4.23.41-.01.33-.03.66-.04.99,1.55.77,3.1,1.54,4.73,2.35-1.2,2.08-2.94,2.18-4.94,1.45"/>
      <path class="cls-1" d="M152.09,64.98c0-.5.05-1-.01-1.48-.18-1.35.85-3.46-1.86-3.32-2.02.1-3.83.62-3.38,3.32.08.48.01.99.01,1.48"/>
      <path class="cls-1" d="M213.76,56.81v8.91"/>
      <path class="cls-1" d="M150.59,38.99h-8.97"/>
      <path class="cls-1" d="M171.52,64.98c0-4.78-.24-5.01-4.86-4.46"/>
      <path class="cls-1" d="M201.42,64.98c0-4.72-.3-5-4.86-4.46"/>
      <path class="cls-1" d="M30.99,13.74c-2.74.5-5.48.99-8.22,1.49"/>
      <path class="cls-1" d="M43.7,73.15c-2.74.5-5.48.99-8.22,1.49"/>
      <path class="cls-1" d="M120.69,62.01c.34-2.15-1.04-2.41-2.61-2.2-1.4.19-2.25.46-2.47,2.55-.23,2.23.9,2.56,2.11,2.92,1.14.34,2.47.07,3.72.07"/>
      <path class="cls-1" d="M205.16,62.75c1.76-.17,3.53-.34,5.88-.57-.82-.98-1.08-1.59-1.39-1.61-1.36-.11-2.8-.27-4.07.09-.38.11-.42,1.85-.39,2.83.07,2.36,1.91,1.84,3.34,1.84.87,0,1.74-.23,2.62-.35"/>
      <path class="cls-1" d="M53.42,67.21l-6.73,4.46"/>
      <path class="cls-1" d="M160.68,57.56c-.12,1.73-.2,3.47-.39,5.2-.25,2.34,1.08,2.78,3,2.6"/>
      <path class="cls-1" d="M61.64,41.96c.25,1.98.5,3.96.75,5.94"/>
      <path class="cls-1" d="M19.78,16.71l-5.61,3.34"/>
      <path class="cls-1" d="M54.16,44.19c-.25,1.73-.5,3.47-.75,5.2"/>
      <path class="cls-1" d="M195.82,56.81v8.91"/>
      <path class="cls-1" d="M221.6,57.56c-2.25-.92-3.54-.14-3.71,2.23-.13,1.72-.02,3.46-.02,5.2"/>
      <path class="cls-1" d="M126.3,35.65h-8.22"/>
      <path class="cls-1" d="M32.86,53.84v4.08"/>
      <path class="cls-1" d="M165.92,56.81c.12,2.72.25,5.45.37,8.17"/>
      <path class="cls-1" d="M95.65,60.15c-3.3.11-3.77,2.17-3.36,4.83"/>
      <path class="cls-1" d="M23.51,24.14c-1.5.25-2.99.5-4.49.74"/>
      <path class="cls-1" d="M116.21,62.38h3.74"/>
      <path class="cls-1" d="M52.11,22.09c.69.93,1.37,1.86,2.06,2.78"/>
      <path class="cls-1" d="M32.86,29.71c-.87-.06-1.74-.12-2.62-.19"/>
      <path class="cls-1" d="M25.76,33.98c-.87.06-1.74.12-2.62.19"/>
      <path class="cls-1" d="M19.22,22.65c.06.62.12,1.24.19,1.86"/>
      <path class="cls-1" d="M25.94,69.44c.06.37.12.74.19,1.11"/>
      <path class="cls-1" d="M59.21,34.53c-.69-.68-1.37-1.36-2.06-2.04"/>
      <path class="cls-1" d="M6.51,53.1c-.31.31-.62.62-.93.93"/>
      <path class="cls-1" d="M139.38,60.15c-1.76,2.1-2.02,3.86-.75,4.83,1.51,1.16,3.05,1.1,4.04-.43.55-.84.81-2.54.32-3.2-.58-.77-2.11-.84-3.24-1.21"/>
      <path class="cls-1" d="M177.5,47.9c3.06,1.98,5.82,1.72,8.22-1.11"/>
      <path class="cls-1" d="M158.07,47.16c4.03,2.64,5.78,2.64,9.34,0"/>
      <path class="cls-1" d="M101.26,59.78c-1.93.29-3.6.99-2.91,3.32.26.88,1.39,2.08,2.17,2.11,1.1.05,2.69-.55,3.27-1.41,1.58-2.32-1.04-2.87-2.16-4.03"/>
    </g>
  </g>
</svg>