<?xml version="1.0" encoding="UTF-8"?>
<svg id="Layer_2" data-name="Layer 2" xmlns="http://www.w3.org/2000/svg" viewBox="0 0 468.7 125.27">
  <g id="Layer_1-2" data-name="Layer 1">
    <g>
      <path d="M38.54,70.67v-21.84l-10.91,11.28,32.86,32.9v32.26L3.17,68.62c-4.23-6.23-4.23-12.49,0-18.73C7.88,42.95,42.14,9.26,49.49,3.64c6.36-4.86,11.66-4.86,18.01,0,8.6,6.58,35.79,33.63,42.42,42.19,7.03,9.08,3.74,21.23-7.45,24.4l-63.93.44ZM77.46,47.84c-2.26-2.63-17.67-19.08-19.33-18.79l-18.6,18.79h37.93Z"/>
      <path d="M217.19,96.49c-8.18,7.22-18.87,5.64-20-6.41-.97-10.32-1.44-42.99.27-52.42s13.04-9.63,19.72-4.69l.55-3.05c4.9,1.03,12.98-2.08,16.42,2.04h-3.99v73.97c0,.46-1.02,6.89-1.22,7.72-1.35,5.61-5.73,8.17-11.21,8.71-13.03,1.28-21.21-1.12-19.52-15.94l10.55.93,1.37,12.53c2.37.98,7.05,1.12,7.05-2.05v-21.34ZM211.9,34.09c-2.09.59-2.49,2.41-2.74,4.27-1.29,9.58-1.28,44.1,0,53.7.84,6.35,7.19,6.31,8.05-1.02,1.36-11.65,1.08-38.75.03-50.69-.29-3.26-.88-7.52-5.33-6.26Z"/>
      <path d="M157.8,3.17c1.79.31,4.87,2.41,5.95,4,3.39,4.99,3.37,30.44,2.29,36.96-2,12.11-10.85,9.53-20.72,9.67v45.66h4s0,1.99,0,1.99h-20.96l4.01-2.56V5.15c-.66-.64-4.97,1.56-4.01-1.98,8.81,1.09,21.09-1.47,29.44,0ZM145.33,51.81c3.87.18,6.8.71,7.76-3.7,1.29-5.92.89-29.72.27-36.56-.54-5.95-1.74-7.02-8.03-6.41v46.66Z"/>
      <path d="M317.99,98.47h4s0,1.99,0,1.99h-15.97v-3.97c-4.37,4.95-16.67,6.88-18.47-.96-1.01-4.39-1.17-29.96.27-33.53,2.78-6.9,13.12-5.91,18.2-2.24v-24.32c0-5.5-7.98-5.5-7.98,0v15.39c-2.59-.44-9.86,1.33-10.84-1.63-.56-5.27-.25-14.59,4.93-17.65,4.21-2.49,20.23-2.83,23.38,1.41.52.7,2.49,5.93,2.49,6.45v59.07ZM304.8,95.26c1.44-5.06,2.62-31.89-.74-34.05-5.69-2.22-5.75,1.2-6.07,5.95-.4,6.07-.77,19.15.11,24.79.23,1.46,1.05,4.01,2.59,4.43l4.11-1.12Z"/>
      <path d="M375.88,64.72v26.31c0,7.21,9.8,9.76,14.55,4.54,1.71-1.88,1.6-3.62,2.31-5.69.52-1.54-.87-2.84,2.1-2.32,1.51,11.85-9.55,14.83-19.35,13.78-8.94-.96-10.9-4.81-11.62-13.25-1.01-11.77-1.05-34,0-45.74.47-5.27,2.25-10.6,7.96-11.94,5.22-1.23,16.29-1.41,19.89,3.18,1.28,1.63,3.13,8.87,3.13,10.78v18.86l-1.5,1.49h-17.47ZM375.88,35.43c-1.21,8.13.89,18.86,0,27.3h6.99v-28.29c0-.43-1.16-2.22-1.71-2.58l-2.4-.41c-1.57.03-2.68,2.63-2.88,3.98Z"/>
      <path d="M345.94,31.96l-3.97-.55-1.99,3.07.04,58.47c.61,5.97,8.56,6.73,12.85,3.98,3.85-2.47,2.81-7.95,3.91-12.04.46-1.71-.7-2.76,2.13-2.29.92,13.87-4.43,19.72-18.44,18.84-12.86-.81-12.86-8.33-13.53-19.3-.59-9.69-.58-23.15,0-32.85.44-7.42.4-17.85,9.59-19.25,19.36-2.94,22.73,4.96,21.4,22.77h-11.98v-20.85Z"/>
      <path d="M414.81,15.08v83.39h4s0,1.99,0,1.99h-19.46c-.17,0-1.57-1.34-1.5-1.98h3.99V17.07h-4s0-1.99,0-1.99h16.97Z"/>
      <path d="M438.76,15.08v83.39h3.99c.07.65-1.33,1.99-1.5,1.99h-17.97c-.17,0-1.57-1.34-1.5-1.98h3.99V17.07h-4s0-1.99,0-1.99h16.97Z"/>
      <polygon points="253.12 15.08 253.12 98.47 257.12 98.47 257.11 100.46 237.15 100.46 237.14 98.47 241.14 98.47 241.14 17.07 237.14 17.06 237.15 15.08 253.12 15.08"/>
      <path d="M277.07,29.97v68.5h4s0,1.99,0,1.99h-19.46c-.17,0-1.57-1.34-1.5-1.98l4.99-1.5V31.96h-4.99c-.07-.65,1.33-1.99,1.5-1.99h15.47Z"/>
      <path d="M463.71,29.97v67.01l4.99,1.5c.07.64-1.33,1.98-1.5,1.98h-19.46v-1.98s3.99,0,3.99,0V31.96h-4s0-1.99,0-1.99h15.97Z"/>
      <polygon points="187.25 29.97 187.25 98.47 191.25 98.47 191.24 100.46 171.28 100.46 171.27 98.47 175.27 98.47 175.27 31.96 171.27 31.96 171.28 29.97 187.25 29.97"/>
      <ellipse cx="181.2" cy="20.32" rx="6.35" ry="6.32"/>
      <ellipse cx="270.8" cy="20.32" rx="6.3" ry="6.26"/>
      <ellipse cx="458" cy="20.33" rx="6.3" ry="6.26"/>
    </g>
  </g>
</svg>