<?xml version="1.0" encoding="UTF-8"?>
<svg id="Layer_2" data-name="Layer 2" xmlns="http://www.w3.org/2000/svg" viewBox="0 0 612 288.33">
  <g id="Layer_1-2" data-name="Layer 1">
    <g>
      <path d="M234.93.2c11.21,1.34,31.02,11.29,40.23,18.09,24.15,17.82,36.17,50.57,5.65,69.06,1.26,2.49,12.56,16.88,10.97,18.4-2.5-.34-6.91.79-8.99-.48-.74-.45-7.78-12.02-9.56-14.35-1.23-1.61-4.95-4.56-5.38-5.59-.69-1.67.66-1.34,1.26-1.7,7.55-4.44,15.28-6.72,19.41-15.49,16.75-35.56-60.78-77.65-85.52-51.23-1.44,1.54-5.98,9.04-5.98,10.67v17.93c0,.31,1.37,1.41.99,2.48-26.69-1.98-51.53,1.86-74.73,15.52-61.52,36.24-76.31,121.22-29.52,175.7,52.19,60.76,150.31,51.91,189.21-17.77l9.81.33c-27.37,51.46-86.14,77.56-143.06,62.17-73.24-19.8-112.17-100.95-81.24-170.57,20.6-46.35,68.28-76.99,119.57-74.33-1.48-19.88,10.67-34.78,29.92-38.84,5.41.46,11.69-.63,16.96,0Z"/>
      <path d="M.5,183.44c-.66-7.2-.67-20.69,0-27.88.18-1.96,2.01-11.18,2.76-12.68.43-.87.95-1.66,1.74-2.25l2.32,1.65c-.99,16.04-1.18,31.43,1.45,47.35,2.89,17.46,9.32,34.15,16.66,50.14-1.01,3.64-2.41,2.7-4.51.47C12.07,230.8,1.7,196.45.5,183.44Z"/>
      <path d="M479.33,200.37l9.49,3.97.49,11.96-43.9-1.99.14-11.82,9.85-3.62,1.05-2.94-.02-66.61-9.85-4.81-.17-12.79,53.18-1.53c32.04-.02,35.82,43.58,12.09,58.29l13.46,32.19,9.07,3.14.98,14.47-27.92-1.44-18.11-41.25-9.84-.13v24.9ZM479.33,157.55c11.82.27,20.17,1.39,21.83-12.56.52-4.33-.18-18.31-6.37-18.31h-15.46v30.87Z"/>
      <path d="M609.01,101.78v42.82h-14.46c-4.34-3.67-6.1-18.66-8.73-21.65-1.6-1.82-11.3-1.5-13.99-1.02-4.95.88-7.84,4.07-9.23,8.72-2.95,9.88-2.57,56.98,1.32,66.43,4,9.74,14.33,8.82,23.14,7.27v-26.39l-10.54-4.42c-.92-1.28-1.2-12.55,1.06-14h34.42v61.74c-8.77,1.23-18.83,1.94-27.45,1-34.67,1.82-47.39-10.6-49.41-44.28-2.16-36.06-.32-83.9,49.96-72.78,1.58.35,5.17,2.44,5.47,2.41.8-.07,1.86-3.6,4.4-4.42,3.52-1.15,10.03-.51,14.03-1.43Z"/>
      <path d="M230.94,110.74l-.46,12-9.56,4.61c1.4,19.22-1.72,40.68,0,59.62.75,8.27,3.76,12.92,12.48,13.45,8.01.49,14.19-2.2,14.94-10.85,1.52-17.66-1.05-39.98-.5-58.47.05-1.67.35-2.94,1.07-4.41-9.6-1.34-11.75-5.56-9.52-15.03l43.42,1.08-.42,13-10.58,2.38-.96,2.03c-1.28,19.65,1.72,41.4.04,60.79-2.04,23.52-26.08,27.07-45.41,25.34-16.26-1.46-26.18-9.79-27.48-26.34-1.64-20.74,1.27-43.63.08-64.6-9.94-3.87-9.75-6.13-9.02-16.61l41.91,1.99Z"/>
      <path d="M286.8,213.31l.17-10.79,8.86-3.81,1-70.39-8.59-3.64.56-11.96c16.74,2.29,53.7-3.59,66.36,7.96,8.5,7.75,9.06,27.32,0,34.89l-9.49,4.95c23.95,4.94,25.9,41.82,3.52,49.84-1.69.61-9.89,2.95-11.01,2.95h-51.37ZM318.72,154.56c13.97.59,20.89.33,19.99-15.48-.8-14.05-9.37-10.16-19.99-12.4v27.88ZM317.72,199.37c15.14.78,25.16-.66,22.97-18.44-1.45-11.73-12.77-10.69-21.97-10.44l-.99,28.88Z"/>
      <path d="M402.31,112.04c12.65-.87,30.98,0,37.51,12.75,6.33,12.37,6.04,53.65,2.94,67.46-1.72,7.67-4.57,15.18-11.93,18.96-13.35,6.86-46.79,4.81-55.66-8.93-8.71-13.49-8.35-59.68-1.77-74.3,5.49-12.22,16.45-15.08,28.92-15.94ZM416.21,197.11c5.04-5.07,4.69-35.1,4.31-43.09-.21-4.32-.64-10.58-1.15-14.79-2.02-16.6-22.85-17.2-25.57-1.85-.64,3.61-1.1,9.82-1.3,13.64-.47,8.9-.25,36.42,3.48,43.43,3.36,6.32,15.86,7.06,20.23,2.65Z"/>
      <path d="M156.12,121.7v81.66l11.84,3.12.13,12.82-47.89,2.99.46-12c2.87-2.28,10.81-2.58,11.51-6.43l-.15-82.54-.81-1.14-6.9-.36-8.27,20.64-12.8.17v-38.84l79.37,6.91-.5,36.48-12.07-.02c-2.44-1.65-5.75-19.26-8.43-22.45-1.34-1.59-3.71-.92-5.49-.99Z"/>
      <path d="M104.1,276.18c.83,1.49-.34,4.07-2.25,3.78-30.79-19.03-53.69-48.69-62.38-84.14C19.55,114.49,76.51,34.2,159.65,26.36c5.63,5.15-9.04,5.91-12.73,6.98C39.46,64.64,8.74,192.27,92.26,267.6c1.96,1.76,11.49,7.94,11.84,8.57Z"/>
      <path d="M54.36,71.91c.23,1.46.83,2.09.27,3.67-1.39,3.9-8.77,12.79-11.4,17.57-30.37,55.1-21.71,122.22,19.73,168.91l-2.23,2.97C10.86,220.49,3.27,139.86,41.18,85.13c1.65-2.39,10.25-15.31,13.18-13.22Z"/>
      <path d="M440.29,240.34l7.13,22.77c1.62-.15,1.45-1.56,1.89-2.58,1.65-3.8,4.89-17.34,6.56-19.34s8.63-.53,11.49-.99l2.99,41.84-10.09-.58-1.89-20.33-5.07,13.84-9.22.14-6.14-15.99-1.51,22.91h-9.97s3.1-41.71,3.1-41.71l10.73.03Z"/>
      <path d="M515.24,241.7c.71-2.31,8.8-1.76,10.99-1.01l13.95,23.42v-23.9h9.98v41.83l-9.97-.5-13.97-23.4v23.9h-10.97v-40.33Z"/>
      <path d="M421.11,261.13c0,11.84-9.61,21.44-21.47,21.44s-21.47-9.6-21.47-21.44,9.61-21.44,21.47-21.44,21.47,9.6,21.47,21.44ZM407.19,252.47c-11.16-10.37-25.47,8.66-14.17,17.63,12.34,9.79,22.66-9.75,14.17-17.63Z"/>
      <path d="M360.12,240.2c12.91,1.63,17.23,17.16,6.44,24.42l9.01,17.4-10.98-.48-7.13-13.29-4.83-.16v13.94h-9.98v-41.83c5.54.5,12.07-.68,17.46,0ZM361.47,251.3l-8.84-1.14v8.97c4.57,1.55,12.11-2.53,8.84-7.83Z"/>
      <path d="M612,282.02l-10.87-.09-2.22-8.74-11.95.46-2.84,7.91-10.01.45,13.92-41.36,10.53.52,13.45,40.84ZM594.04,253.15c-3.07-.49-1.56.84-2,2.45-.82,2.99-1.12,5.82-2.98,8.5h6.98s-2-10.95-2-10.95Z"/>
      <path d="M511.25,282.02l-10.02-.45-3.58-8.38-10.74-.19-2.7,8.92-10.87.1,14.1-41.69c3.23.06,8.71-1.36,10.75,1.45l13.06,40.24ZM496.29,264.09l-3.98-11.93-3,11.94h6.98Z"/>
      <path d="M570.1,282.03h-10.97v-40.33l1.65-1.33c1.26-.28,2.55-.22,3.83-.22,2.04,0,4.22-.33,5.49,1.56v40.33Z"/>
      <path d="M310.74,58.46c4.09-4.52,4.81,4.28,5.02,6.94.69,8.5.07,15.1-3.02,22.95-.86,2.2-3.56,5.14-3.74,7.11-.24,2.63,4.5,9.6,3.72,10.3-5.4,3.16-12.15-7.89-11.98-11.36.13-2.68,5.4-7.91,6.89-11.15.49-1.06,3.1-8.38,3.1-8.85v-15.93Z"/>
      <path d="M314.73,221.29c1.77,1.52-16.74,27.71-18.98,30.34-3.56,4.18-11.75,12.79-15.91,15.98-1.48,1.13-2.94,2.68-5,2.47-.83-5.43,4.74-6.95,8-10.42,10.59-11.28,19.61-24.13,26.06-38.21l5.82-.16Z"/>
    </g>
  </g>
</svg>